<svg xmlns="http://www.w3.org/2000/svg" version="1.1" xmlns:xlink="http://www.w3.org/1999/xlink" viewBox="0 0 1422 800" style="overflow: hidden; display: block;" width="1422" height="800"><defs></defs><g id="two-0" transform="matrix(1 0 0 1 0 0)" opacity="1"></g><path d="M 736.8152623651764 299.78879165649414 Q 736.8152623651764 299.78879165649414 737.1443594080665 297.78145353520637 737.4734564509566 295.7741154139186 738.4262910323632 293.9769461238154 739.3791256137699 292.1797768337123 740.8559357014958 290.78094047387424 742.3327457892218 289.38210411403617 744.1789089772421 288.5280592205951 746.0250721652624 287.67401432715405 748.0472946804516 287.45417962589926 750.069517195641 287.23434492464446 752.0560718068439 287.67173716682805 754.0426264180469 288.10912940901164 755.7855203330712 289.1579535114166 757.5284142480954 290.20677761382166 758.8451660139585 291.75722141606354 760.1619177798216 293.3076652183055 760.914663139049 295.19739684501224 761.6674084982766 297.0871284717189 761.7773348130518 299.11829252273355 761.8872611278271 301.1494565737481 761.3428590839753 303.10938963675414 760.7984570401237 305.0693226997602 759.6567256753444 306.75281926568886 758.5149943105653 308.4363158316175 756.8954732001387 309.66711336561605 755.2759520897122 310.89791089961466 753.3482055214122 311.5471445749746 751.4204589531121 312.1963782503345 749.386322501515 312.19607312986443 747.352186049918 312.19576800939444 745.4246343384661 311.5459560392882 743.4970826270144 310.896144069182 741.877930828721 309.66486073424346 740.2587790304276 308.4335773993049 739.1175527659885 306.7497383897293 737.9763265015495 305.0658993801537 737.4325124621059 303.10580308473396 736.8886984226623 301.1457067893142 736.9992340816971 299.11457580759594 737.1097697407317 297.0834448258777 737.8630819855653 295.19393910781326 738.6163942303987 293.30443338974885 739.9336110701418 291.7543846828007 741.2508279098847 290.2043359758526 742.9940363937047 289.1560347888113 744.7372448775247 288.1077336017701 746.7239306170034 287.6709373456436 748.7106163564821 287.2341410895171 750.732772830262 287.4545824476248 752.7549293040419 287.67502380573245 754.6008361955206 288.5296225096896 756.4467430869994 289.3842212136467 757.9231334573672 290.7835005535568 759.399523827735 292.18277989346694 760.3518192154852 293.98023495306757 761.3041146032353 295.77769001266824 761.6326094298888 297.78512677273716 761.9611042565422 299.79256353280607 761.9611045394329 299.7906775946501 761.9611048223236 299.78879165649414 761.8687209183578 301.30425195992564 761.776337014392 302.8197122633571 761.3239530809949 304.2690236494273 760.8715691475978 305.71833503549755 760.0854777602336 307.0172634583525 759.2993863728694 308.31619188120743 758.225275199906 309.38924355988087 757.1511640269428 310.4622952385543 755.8514604602199 311.2471043590647 754.5517568934969 312.031913479575 753.1019997653785 312.48286689896406 751.6522426372602 312.9338203183531 750.1366919001493 313.02470860269807 748.6211411630384 313.11559688704307 747.1278806969835 312.8411376049874 745.6346202309288 312.56667832293175 744.2504384043779 311.942823060844 742.8662565778269 311.3189677987562 741.6716021035743 310.38197505378054 740.4769476293218 309.44498230880487 739.5412538815419 308.2493101433038 738.605560133762 307.0536379778027 737.983209677039 305.6687789142134 737.360859220316 304.28391985062416 737.0880230924357 302.7903619627899 736.8151869645554 301.2968040749557 736.8152246648659 300.5427978657249 Z" fill="hsl(167, 52%, 78%)"></path><path d="M 535.586594897539 367.69530533952604 Q 535.586594897539 367.69530533952604 535.7671506275831 370.6813907692957 535.9477063576271 373.6674761990654 534.7198354554396 376.3954130775682 533.4919645532522 379.123349956071 531.1369750028734 380.96816181182794 528.7819854524947 382.8129736675849 525.839410654116 383.3520099571617 522.8968358557373 383.8910462467386 520.0408263108038 383.00081254439783 517.1848167658704 382.11057884205707 515.0696906816578 379.9950296903194 512.9545645974451 377.8794805385818 512.0649021148142 375.02329300402926 511.17523963218326 372.1671054694767 511.71486442593516 369.2246385372067 512.254489219687 366.28217160493665 514.0997720364546 363.92755106402643 515.9450548532224 361.5729305231162 518.6732372513452 360.3456052328582 521.4014196494682 359.11827994260017 524.3874689083702 359.2994328861151 527.3735181672724 359.48058582963 529.9333236888688 361.0287144603127 532.4931292104651 362.5768430909954 534.039862054002 365.1360742152607 Z" fill="hsl(167, 52%, 78%)"></path><path d="M 746.885667163164 480.5631642262448 Q 746.885667163164 480.5631642262448 747.0662228932081 483.54924965601447 747.2467786232521 486.53533508578414 746.0189077210646 489.26327196428696 744.7910368188772 491.9912088427898 742.4360472684984 493.8360206985467 740.0810577181197 495.68083255430366 737.138482919741 496.2198688438805 734.1959081213623 496.75890513345735 731.3398985764288 495.8686714311166 728.4838890314954 494.9784377287758 726.3687629472828 492.8628885770382 724.2536368630701 490.74733942530054 723.3639743804392 487.891151890748 722.4743118978083 485.0349643561955 723.0139366915602 482.09249742392547 723.553561485312 479.1500304916554 725.3988443020796 476.7954099507452 727.2441271188474 474.44078940983496 729.9723095169702 473.21346411957694 732.7004919150932 471.9861388293189 735.6865411739952 472.16729177283383 738.6725904328974 472.34844471634875 741.2323959544938 473.89657334703145 743.7922014760901 475.44470197771415 745.338934319627 478.00393310197944 Z" fill="hsl(167, 52%, 78%)"></path><path d="M 945.0605939209765 257.45232438249485 Q 945.0605939209765 257.45232438249485 945.2411496510206 260.43840981226447 945.4217053810646 263.42449524203414 944.1938344788771 266.15243212053696 942.9659635766897 268.8803689990398 940.6109740263109 270.7251808547967 938.2559844759322 272.56999271055366 935.3134096775535 273.1090290001305 932.3708348791748 273.64806528970735 929.5148253342413 272.7578315873666 926.6588157893078 271.86759788502576 924.5436897050952 269.7520487332881 922.4285636208826 267.63649958155054 921.5389011382517 264.780312046998 920.6492386556208 261.9241245124454 921.1888634493727 258.9816575801754 921.7284882431245 256.0391906479054 923.5737710598921 253.68457010699518 925.4190538766599 251.32994956608496 928.1472362747827 250.10262427582694 930.8754186729057 248.87529898556895 933.8614679318077 249.0564519290839 936.8475171907099 249.2376048725988 939.4073227123063 250.78573350328148 941.9671282339026 252.33386213396415 943.5138610774395 254.8930932582295 Z" fill="hsl(167, 52%, 78%)"></path><path d="M 422.71873601082024 190.5190663258542 Q 422.71873601082024 190.5190663258542 422.8992917408643 193.50515175562384 423.07984747090836 196.49123718539352 421.8519765687209 199.21917406389633 420.6241056665334 201.94711094239912 418.2691161161547 203.79192279815607 415.914126565776 205.63673465391304 412.9715517673973 206.17577094348988 410.0289769690185 206.71480723306672 407.1729674240851 205.82457353072596 404.31695787915163 204.93433982838516 402.20183179493904 202.81879067664755 400.0867057107264 200.7032415249099 399.1970432280955 197.84705399035738 398.30738074546457 194.99086645580482 398.8470055392164 192.04839952353478 399.3866303329683 189.10593259126478 401.231913149736 186.75131205035456 403.07719596650367 184.39669150944434 405.80537836462656 183.16936621918632 408.5335607627494 181.94204092892832 411.5196100216516 182.12319387244327 414.50565928055374 182.30434681595818 417.06546480215 183.85247544664085 419.62527032374635 185.40060407732352 421.17200316728326 187.95983520158887 Z" fill="hsl(167, 52%, 78%)"></path><path d="M 284.0302011354995 339.5717399074752 Q 284.0302011354995 339.5717399074752 293.45989247929276 338.84642137994194 302.88958382308607 338.1211028524087 314.28513003841533 336.0172407184409 325.68067625374465 333.9133785844731 342.1004937476486 330.51353502186726 358.5203112415526 327.1136914592614 377.4591308477858 324.21042344637686 396.39795045401905 321.3071554334923 413.26088287246716 319.758236418356 430.12381529091533 318.20931740321964 443.7771382237112 317.60447099630386 457.430461156507 316.9996245893881 467.38270917096236 316.47979256731094 477.33495718541775 315.95996054523386 484.0816606026067 316.294082556925 490.8283640197957 316.6282045686161 496.5569901731235 319.4479001236708 502.28561632645125 322.2675956787255 505.6117988780652 328.332367688516 508.93798142967916 334.39713969830643 507.2312612056361 344.5005538970654 505.5245409815931 354.6039680958244 497.3737907448014 367.5604140653355 489.2230405080097 380.5168600348467 476.93855960435263 395.97991580450196 464.65407870069555 411.44297157415724 450.2556579510875 427.4151537005216 435.85723720147956 443.38733582688593 420.8958487622541 457.78051713441596 405.93446032302865 472.17369844194604 390.66104456031013 484.0746871873581 375.3876287975916 495.9756759327702 359.0591852975118 504.6191188463364 342.730741797432 513.2625617599026 326.3351169966637 518.1480994924318 309.9394921958954 523.033637224961 294.2247687949999 524.3467463130517 278.51004539410434 525.6598554011423 264.61621620703147 522.2456878182979 250.7223870199586 518.8315202354537 239.2405144162601 510.0299334346663 227.7586418125616 501.22834663387886 220.36137503119446 488.5443391073711 212.96410824982732 475.86033158086343 209.44760591955549 460.57701874312926 205.93110358928362 445.2937059053951 205.26884918884917 431.3950774492905 204.60659478841475 417.496448993186 208.6408856870995 403.65260337562836 212.67517658578424 389.8087577580708 220.31432263205963 377.2347019829394 227.953468678335 364.660646207808 228.61911540266277 363.89389353551655 229.28476212699056 363.12714086322507 230.16039497564145 362.61307633766637 231.03602782429238 362.0990118121076 232.02996780686806 361.89145812480757 233.02390778944374 361.6839044375075 234.03208912739385 361.80459251431523 235.04027046534395 361.92528059112294 235.95713630645108 362.3615743585381 236.8740021475582 362.7978681259533 237.60355639622935 363.5040875113572 238.3331106449005 364.21030689676115 238.7989687787162 365.1125105440782 239.26482691253187 366.0147141913952 239.418213461907 367.0184411405927 239.5716000112821 368.0221680897901 239.39645536400695 369.02232786432876 239.2213107167318 370.02248763886746 238.73597256360983 370.9143632463366 238.25063441048783 371.80623885380584 237.5059177842677 372.49645068267125 236.76120115804753 373.1866625115366 235.83507808608056 373.60294520111773 234.90895501411362 374.01922789069886 233.89839082650752 374.11799653350863 232.88782663890146 374.2167651763184 231.89862767286166 373.98767866938226 230.90942870682187 373.7585921624461 230.0451643552159 373.2256359235132 229.1809000036099 372.69267968458036 228.5320589721945 371.91165437255376 227.8832179407791 371.13062906052716 227.51773405682087 370.18330823174676 227.15225017286267 369.2359874029664 227.10838969549042 368.2215557982738 227.0645292181182 367.20712419358125 227.34688435089083 366.2317930697718 227.6292394836635 365.2564619459624 228.20824756964524 364.4223487291614 228.78725565562698 363.58823551236037 229.6022943953722 362.9826720765513 230.41733313511745 362.3771086407422 231.38306775742552 362.0634976375075 232.3488023797336 361.7498866342728 233.3641202147197 361.76106321843645 234.37943804970578 361.7722398026001 235.33803505202894 362.1070337828498 236.29663205435213 362.44182776309947 237.09814286482413 363.06518612132606 237.8996536752961 363.6885444795526 238.46015990048218 364.53520143109915 239.02066612566827 365.38185838264565 239.2814826158322 366.3631687211895 239.5422991059961 367.3444790597333 239.4761183057688 368.3576993337881 239.40993750554154 369.3709196078429 239.02368856217691 370.30996538725094 238.63743961881227 371.24901116665905 238.63793374618788 371.24820986883253 238.6384278735635 371.24740857100596 231.64983193598988 382.4022832775677 224.66123599841626 393.5571579841294 220.91164704826974 405.3604892410059 217.16205809812325 417.16382049788234 217.71664186932668 429.8746669830015 218.27122564053008 442.58551346812055 221.16911545095712 456.17590631699716 224.06700526138414 469.76629916587376 229.9867937969992 480.6298479309319 235.90658233261425 491.49339669598993 245.10522702892666 499.03412553758153 254.3038717252391 506.5748543791732 265.9869901618707 509.6519820319589 277.6701085985024 512.7291096847446 291.9508583445471 511.55965775786524 306.2316080905918 510.39020583098596 321.34984735942794 505.8832006709847 336.4680866282641 501.3761955109834 351.67498950864143 493.2464130753971 366.8818923890188 485.11663063981075 381.41871690338695 473.53175094535106 395.9555414177551 461.9468712508914 410.2965842170102 447.71352222483074 424.6376270162653 433.48017319877005 438.3467927084175 417.6082896677426 452.0559584005698 401.73640613671523 463.2920116998367 386.66282333061423 474.52806499910355 371.58924052451323 480.8804375909978 360.63656979118787 487.2328101828921 349.68389905786245 489.6316052651456 342.5682819957842 492.03040034739905 335.452664933706 484.9016502064981 333.0532288076048 477.7729000655972 330.6537926815036 467.97141966426386 330.7460101767783 458.1699392629306 330.838227672053 444.87575079805276 331.6734977765532 431.58156233317493 332.50876788105336 415.22414502168783 334.3483583045429 398.8667277102008 336.18794872803244 380.47937041856255 339.4819913830084 362.09201312692426 342.77603403798435 345.72981663376385 346.85561092606594 329.36762014060344 350.9351878141475 316.8976889656434 354.00059945718783 304.4277577906834 357.0660111002281 294.99147241938886 357.8499798346577 285.55518704809424 358.6339485690873 284.4036011414802 358.58670261282646 283.25201523486606 358.5394566565656 282.1452014920286 358.2179825217408 281.0383877491912 357.89650838691597 280.0406742368675 357.31949016534753 279.0429607245439 356.7424719437791 278.2123345989476 355.9434459616157 277.38170847335135 355.1444199794523 276.76644576392897 354.16982566431943 276.1511830545066 353.1952313491865 275.7870428588377 352.1017121684706 275.42290266316877 351.0081929877548 275.3310488265347 349.8593043276181 275.2391949899006 348.71041566748136 275.4249660616023 347.57293099083114 275.61073713330387 346.4354463141809 276.06333608992554 345.3754762838687 276.51593504654716 344.3155062535564 277.2090568154647 343.3946563775463 277.90217858438217 342.47380650153616 278.7955388958199 341.7455966178878 279.68889920725763 341.01738673423955 280.7305759179405 340.52414043560555 281.77225262862333 340.0308941369715 282.9017034391834 339.80127892140337 284.03115424974345 339.57166370583525 284.03067769262145 339.57170180665526 Z" fill="hsl(167, 52%, 78%)"></path><path d="M 629.7222078662564 253.7852271711896 Q 629.7222078662564 253.7852271711896 625.2099283565285 258.83227139007727 620.6976488468007 263.87931560896493 614.6886123985971 267.5646427714791 608.6795759503934 271.24996993399327 601.0784970451855 272.1371847823423 593.4774181399775 273.02439963069133 585.5326663350642 269.0332729186084 577.5879145301508 265.04214620652544 572.6402401182936 255.1388423254422 567.6925657064363 245.23553844435895 565.8968112546693 234.36144482577475 564.1010568029022 223.48735120719053 564.9104132993568 210.69648729420567 565.7197697958114 197.90562338122078 569.9051842899025 185.34584110807228 574.0905987839935 172.78605883492378 581.2860480280297 162.34629638733452 588.4814972720658 151.90653393974526 599.4601246907736 143.4898132758197 610.4387521094814 135.07309261189414 622.2823723892627 129.59646991859773 634.1259926690441 124.1198472253013 645.6852807846817 121.61568448004482 657.2445689003193 119.11152173478833 668.3521183382402 119.14678774532432 679.4596677761609 119.18205375586031 689.289652577519 122.37775468414925 699.119637378877 125.5734556124382 707.4151810338152 132.032941511315 715.7107246887534 138.4924274101918 721.2006263668948 146.83221807589817 726.690528045036 155.17200874160454 729.8864293683405 164.55772116831963 733.082330691645 173.94343359503472 733.3192148936877 184.55065893547447 733.5560990957304 195.15788427591423 730.3054025482037 205.7356746487646 727.054706000677 216.31346502161495 722.433697079128 224.5738842133626 717.8126881575791 232.8343034051102 712.4338726089215 238.82842334261161 707.0550570602641 244.82254328011302 701.7396862589496 248.86168507854842 696.4243154576352 252.9008268769838 686.8771384633014 255.29047900184327 677.3299614689678 257.6801311267027 670.7514806901011 251.36365346336083 664.1729999112342 245.04717580001898 667.974864784634 236.8581580036397 671.7767296580337 228.66914020726043 679.8357023082697 225.75855363177618 687.8946749585058 222.8479670562919 696.0539224550639 222.54040613762098 704.213169951622 222.23284521895005 712.1664132675621 231.01524961521517 720.1196565835021 239.79765401148026 719.4026357477094 246.57610067789784 718.6856149119166 253.35454734431542 714.7388674790308 259.88529634631607 710.792120046145 266.41604534831674 706.0131975548877 271.13173570815877 701.2342750636304 275.8474260680008 695.7554761106162 279.42348931310755 690.2766771576021 282.99955255821436 682.752774376707 284.5428328906086 675.2288715958118 286.0861132230029 667.5998523148045 283.23427625756597 659.9708330337971 280.382439292129 655.2258840465349 273.87224355671515 650.4809350592727 267.3620478213013 648.4867605420059 260.6198179886115 646.4925860247391 253.87758815592164 646.0601010448746 247.5028138474038 645.6276160650101 241.1280395388859 647.4452033629442 234.65418888131848 649.2627906608783 228.18033822375105 654.1097323618138 223.3043610009392 658.9566740627494 218.42838377812734 665.1325020240706 216.27905065452995 671.3083299853919 214.12971753093257 678.5903383856262 213.79792959659625 685.8723467858604 213.46614166225996 693.7941919421537 215.24303157172483 701.7160370984469 217.01992148118967 709.356950857172 221.67883841525318 716.9978646158971 226.3377553493167 722.7149289564492 233.11841586251737 728.4319932970012 239.89907637571804 732.1104165945094 247.7121736494176 735.7888398920174 255.52527092311712 737.7373048847098 263.62692939332254 739.6857698774022 271.72858786352793 740.1663009594768 278.7821330964051 740.6468320415513 285.83567832928236 740.4217708471906 287.8848648671056 740.19670965283 289.9340514049288 739.3291019558652 291.8040981669566 738.4614942589004 293.6741449289843 737.0421788142298 295.1692575255878 735.6228633695592 296.6643701221913 733.8004428789028 297.62800986983484 731.9780223882464 298.59164961747837 729.943304758048 298.9229231802075 727.9085871278497 299.25419674293653 725.8746078311046 298.9184196912857 723.8406285343596 298.58264263963486 722.0203457403553 297.61497091954845 720.2000629463511 296.6472991994621 718.7840607441278 295.1490482954738 717.3680585419046 293.6507973914854 716.5045927358235 291.77883456874247 715.6411269297423 289.9068717459996 715.4206026176328 287.8571920061935 715.2000783055232 285.8075122663874 715.6455844410759 283.7947176193387 716.0910905766287 281.78192297229003 717.1559825498491 280.01675354887095 718.2208745230696 278.2515841254518 719.7936578632573 276.9188536302538 721.3664412034451 275.5861231350558 723.282445079708 274.8253688027327 725.198448955971 274.06461447040965 727.2570672566885 273.9554874803754 729.315685557406 273.84636049034117 731.3013804030705 274.4002864672591 733.287075248735 274.954212444177 734.9919438648328 276.11319519204153 736.6968124809307 277.27217793990604 737.9423546733149 278.9148716590739 739.187896865699 280.55756537824186 739.8437040380358 282.51197960268735 740.4995112103725 284.4663938271328 740.4969201786016 286.52790087164107 740.4943291468309 288.58940791614936 739.833611192663 290.5421674489755 739.1728932384952 292.4949269818016 737.9232257061443 294.13448456438016 736.6735581737934 295.7740421469587 734.9657815837766 296.9287356675926 733.2580049937599 298.0834291882265 731.2709240058614 298.63236193049585 729.2838430179629 299.1812946727652 727.2255055361541 299.06699323365024 725.1671680543452 298.95269179453527 723.2530825563197 298.187123564884 721.3389970582942 297.4215553352327 719.7695688009649 296.08487551077997 718.2001405436355 294.7481956863273 717.1396890798334 292.9803549975425 716.0792376160313 291.21251430875776 715.6387924939486 289.19860614242134 715.1983473718659 287.18469797608486 715.1984485483401 287.1866066124494 715.1985497248145 287.1885152488139 713.7341722536161 276.71214152911847 712.2697947824176 266.235767809423 707.2128014610489 257.36907987459733 702.1558081396803 248.5023919397717 694.2113723270265 244.7512467105526 686.2669365143729 241.00010148133347 679.4490592019824 244.02870839939555 672.6311818895919 247.05731531745764 677.8681917768865 251.8052998552658 683.1052016641812 256.5532843930739 688.1943739247034 251.59811127989082 693.2835461852256 246.64293816670772 689.1464215611104 241.4198150751899 685.009296936995 236.19669198367208 693.4108211540795 229.7351789262441 701.812345371164 223.2736658688161 705.7945588091325 216.9144081832519 709.776772247101 210.55515049768775 712.5639778334114 202.7143072383178 715.3511834197218 194.87346397894783 715.5899221657652 187.0014323426674 715.8286609118086 179.129400706387 713.7020502936074 171.66884506575042 711.5754396754062 164.20828942511383 708.0930067014292 157.76852744038794 704.6105737274523 151.32876545566205 698.8972700219379 146.09592643572537 693.1839663164234 140.8630874157887 686.0325840518266 137.85489660323432 678.8812017872298 134.84670579067995 669.5644430035566 134.48956379814595 660.2476842198832 134.13242180561195 650.3840718152718 136.03181136428202 640.5204594106604 137.93120092295212 630.3672029493227 142.81587776830645 620.2139464879851 147.70055461366076 611.3964703154571 154.7852638442167 602.5789941429291 161.86997307477264 596.9321997003258 170.147925168082 591.2854052577225 178.42587726139135 588.3368482212095 188.6003152516394 585.3882911846966 198.77475324188742 585.3924590383699 209.29057157205062 585.3966268920432 219.80638990221385 588.3858924604099 233.64507327973848 591.3751580287767 247.48375665726314 598.3668414440153 248.34687079270378 605.3585248592541 249.20998492814445 609.9018987308739 244.44672336089928 614.4452726024936 239.68346179365415 615.399979294878 238.8718801992093 616.3546859872624 238.06029860476445 617.4758791306572 237.50078498729846 618.5970722740518 236.9412713698325 619.8195880702838 236.66634468708116 621.0421038665157 236.3914180043298 622.2948896400682 236.41705700801197 623.5476754136206 236.44269601169415 624.7579191964728 236.7674105617112 625.968162979325 237.09212511172822 627.0655253459546 237.69704278317647 628.1628877125842 238.30196045462475 629.0835899106833 239.15192340401774 630.0042921087822 240.0018863534107 630.6948228833382 241.04749469419434 631.3853536578943 242.093103034978 631.8055793278456 243.27358596125822 632.2258049977969 244.45406888753848 632.3513020274618 245.70081667617518 632.4767990571265 246.9475644648119 632.3002735532443 248.1881160757513 632.1237480493621 249.42866768669072 631.6554596825125 250.59092220201796 631.1871713156629 251.75317671734518 630.4543370277297 252.76958385002115 629.7215027397964 253.7859909826971 629.7218553030264 253.78560907694333 Z" fill="hsl(167, 52%, 78%)"></path><path d="M 818.4085924269493 451.24431704808325 Q 818.4085924269493 451.24431704808325 814.3381176380669 446.7281221249302 810.2676428491847 442.2119272017772 807.6523443427674 430.80671937554234 805.0370458363501 419.4015115493075 804.6364515830933 408.1631641193094 804.2358573298366 396.9248166893112 804.4319161502183 387.1299651071248 804.6279749706 377.3351135249383 805.8616813551401 368.39858267109645 807.0953877396803 359.4620518172546 810.7660807658069 351.9078815915161 814.4367737919335 344.3537113657777 821.2537740126429 338.4087954197547 828.0707742333522 332.46387947373165 837.3889683539353 329.3713164109356 846.7071624745183 326.2787533481395 855.723741028454 325.1812285419207 864.7403195823897 324.0837037357019 873.1022974121445 323.6549800655212 881.4642752418993 323.22625639534056 890.5645085304009 324.64699682274943 899.6647418189025 326.0677372501583 908.1682540875199 329.7103767286958 916.6717663561374 333.3530162072332 923.885173938146 339.96703707485506 931.0985815201545 346.58105794247695 935.9650755415335 357.0311744572796 940.8315695629123 367.48129097208226 942.0253657367241 381.0986330162907 943.2191619105361 394.7159750604992 940.6591796668274 409.27028804702263 938.0991974231188 423.8246010335461 932.8945834444443 436.3460942997918 927.6899694657698 448.86758756603746 922.5093287369441 458.18369932628366 917.3286880081185 467.49981108652986 911.8472785495493 474.0002013683544 906.36586909098 480.500591650179 896.6864868599573 485.79012111932667 887.0071046289346 491.07965058847435 880.594207548523 483.85322999752896 874.1813104681113 476.6268094065835 879.5692461592439 469.6086961809026 884.9571818503764 462.59058295522163 887.6975881664268 460.76357434645195 890.4379944824772 458.93656573768226 892.1006759945457 458.28645866518775 893.7633575066142 457.6363515926932 895.5465839782621 457.5511907619335 897.3298104499102 457.4660299311738 899.04687759883 457.9547317036098 900.7639447477499 458.44343347604575 902.2350751901879 459.45483064709856 903.706205632626 460.46622781815137 904.7773716229185 461.89442683702896 905.8485376132109 463.3226258559065 906.4075877894135 465.0180939083243 906.9666379656161 466.7135619607422 906.9550396267057 468.4987830940521 906.9434412877954 470.284004227362 906.3624087829176 471.9720653176538 905.7813762780397 473.66012640794565 904.6917438638328 475.074287013461 903.6021114496259 476.4884476189763 902.1179639274924 477.48064475101546 900.6338164053589 478.4728418830547 898.910544412643 478.9391922399787 897.1872724199272 479.4055425969027 895.4053029891661 479.29721917323695 893.623333558405 479.18889574957126 891.9692393593934 478.5172400363683 890.3151451603819 477.8455843231653 888.962110292395 476.6809188508973 887.609075424408 475.51625337862924 886.6987629952904 473.9805189296844 885.7884505661727 472.44478448073966 885.4161705275521 470.6987728573172 885.0438904889317 468.95276123389465 885.2486206591241 467.17928031386907 885.4533508293166 465.4057993938435 886.2136559054595 463.79053309769506 886.9739609816023 462.17526680154657 888.2102368215224 460.88733393687085 889.4465126614424 459.59940107219506 891.0293208583548 458.7736485499049 892.6121290552672 457.9478960276147 894.3757491731346 457.67078035477135 896.1393692910019 457.393664681928 897.8991498379329 457.69419994262955 899.6589303848639 457.9947352033312 901.230621873058 458.84145527644864 902.8023133612521 459.6881753495661 904.0213592770091 460.9924284199317 905.240405192766 462.2966814902973 905.9791711069092 463.9219119171544 906.7179370210524 465.54714234401143 906.8990739473559 467.3231880726488 907.0802108736593 469.0992338012862 906.6847537281235 470.84014237508507 906.2892965825877 472.58105094888396 905.3586498327406 474.10454878061233 904.4280030828937 475.6280466123407 903.0596056891115 476.77462307685227 901.6912082953293 477.9211995413638 901.6926321428753 477.9203555503216 901.6940559904211 477.9195115592793 897.7093699348925 473.385510828877 893.7246838793639 468.8515100984747 898.5306158315694 464.13158178782135 903.336547783775 459.41165347716804 908.1564422505685 451.2051140398101 912.9763367173621 442.99857460245215 917.0974197809993 432.0465384969224 921.2185028446365 421.0945023913926 922.845057730586 408.8269295743819 924.4716126165354 396.55935675737123 923.0867631004801 386.1300784251574 921.7019135844249 375.70080009294367 914.5870436323189 364.2184208924228 907.4721736802128 352.7360416919019 901.695084378751 349.9577483849507 895.9179950772891 347.1794550779996 889.1730097702917 345.9214809406329 882.4280244632944 344.66350680326616 874.8146373073162 345.03441233671555 867.201250151338 345.40531787016494 854.0278757451008 347.5237233723493 840.8545013388638 349.6421288745336 834.0974303390033 356.237338456323 827.3403593391427 362.8325480381124 826.2356211924453 370.1914572346382 825.1308830457479 377.55036643116404 825.151595014137 386.5658771515432 825.1723069825262 395.5813878719223 826.134784618193 405.51964401000123 827.0972622538599 415.4579001480802 827.6891917213806 421.9187826767648 828.2811211889012 428.3796652054494 831.7570651622259 432.1645063540737 835.2330091355507 435.949347502698 836.02588965728 437.067083575942 836.8187701790093 438.184819649186 837.3211094751636 439.45982893648863 837.8234487713178 440.7348382237913 838.006050858402 442.0930171254686 838.1886529454862 443.4511960271458 838.0409049816196 444.81360712161836 837.893157017753 446.17601821609094 837.4236461215373 447.4634781065355 836.9541352253217 448.7509379969801 836.190149392105 449.88861945407297 835.4261635588883 451.02630091116583 834.4121056811929 451.94808183516705 833.3980478034974 452.8698627591682 832.1928549728202 453.5221691994651 830.9876621421429 454.17447563976197 829.6613802224285 454.519395515396 828.3350983027141 454.86431539103006 826.9648108614515 454.8818019426234 825.5945234201888 454.8992884942167 824.2598716278469 454.5883254025691 822.9252198355049 454.2773623109216 821.7037737169628 453.6560227655302 820.4823275984206 453.03468322013885 819.4450776594774 452.1390795045753 818.4078277205343 451.2434757890118 818.4082100737419 451.24389641854754 Z" fill="hsl(167, 52%, 78%)"></path><path d="M 1099.2865225448002 556.4646606445312 Q 1099.2865225448002 556.4646606445312 1099.5990264067423 547.0316635131836 1099.9115302686841 537.598666381836 1100.1904529724707 527.9298548507691 1100.4693756762572 518.2610433197021 1100.5289437483807 510.00128038311004 1100.5885118205044 501.74151744651795 1100.5027374398276 495.21256122214794 1100.4169630591507 488.68360499777793 1100.8828687245525 479.4995770337746 1101.3487743899543 470.31554906977124 1109.863915811461 463.8381844587144 1118.3790572329676 457.36081984765764 1124.6205255175162 457.7573814192069 1130.8619938020647 458.15394299075626 1137.5515850652664 461.35914792691494 1144.2411763284679 464.5643528630737 1149.6588045697486 470.3549750464484 1155.0764328110292 476.14559722982307 1158.8737935095057 482.8536000096304 1162.6711542079822 489.5616027894377 1165.1531969469193 496.26365311661505 1167.6352396858563 502.96570344379245 1170.0874527911506 511.1552632924297 1172.5396658964448 519.344823141067 1179.1962928612359 516.110443444835 1185.852919826027 512.8760637486031 1197.1103744916168 511.7222504462841 1208.3678291572069 510.5684371439651 1219.888408695981 511.54543071762 1231.4089882347555 512.5224242912748 1237.0880092709167 516.826857011325 1242.7670303070777 521.1312897313754 1245.6200121849783 527.0324599220257 1248.4729940628793 532.9336301126759 1249.484908305934 539.1144991796232 1250.4968225489888 545.2953682465704 1249.997587063167 551.9089492839261 1249.4983515773454 558.5225303212817 1246.885648493575 565.5254665656673 1244.2729454098044 572.528402810053 1239.9904159492166 578.9264295059812 1235.707886488629 585.3244562019095 1230.4463103109483 590.9233398896453 1225.1847341332675 596.522223577381 1219.2316380636048 600.9137789727669 1213.2785419939419 605.3053343681527 1206.9790453377 608.2453012730773 1200.6795486814578 611.1852681780018 1190.7863921412913 613.7005875212828 1180.8932356011246 616.2159068645637 1173.5517221164132 616.3621305013139 1166.210208631702 616.5083541380641 1164.0623984142587 615.9052811147708 1161.9145881968154 615.3022080914775 1160.0717841789606 614.0448858760703 1158.228980161106 612.7875636606633 1156.8841244099622 611.0076342209964 1155.5392686588184 609.2277047813294 1154.8331679265377 607.1115271995914 1154.127067194257 604.9953496178533 1154.1336504139017 602.764488245469 1154.1402336335466 600.5336268730846 1154.8588115402822 598.4216534846325 1155.5773894470178 596.3096800961806 1156.9327267443227 594.5377188629388 1158.2880640416279 592.7657576296971 1160.1382565567 591.5193333605382 1161.9884490717725 590.2729090913795 1164.1397811598806 589.6825227363086 1166.2911132479887 589.0921363812377 1168.5183398716113 589.2196015474774 1170.745566495234 589.3470667137173 1172.8154964389469 590.179037764715 1174.88542638266 591.0110088157127 1176.5813374349482 592.4603781628098 1178.2772484872362 593.9097475099068 1179.4215783132481 595.8247657998659 1180.5659081392598 597.7397840898249 1181.038845104138 599.9199484021715 1181.5117820690161 602.100112714518 1181.2638095476948 604.317159270242 1181.0158370263734 606.5342058259658 1180.0729178072934 608.5560092654393 1179.129998588213 610.5778127049128 1177.5908565625182 612.1926896743189 1176.0517145368235 613.8075666437248 1174.0774982808985 614.8464390980803 1172.1032820249732 615.8853115524358 1169.9006925019555 616.2394092715342 1167.6981029789379 616.5935069906325 1165.4977518933147 616.2257558498113 1163.2974008076917 615.85800470899 1161.3296654989645 614.8069083497703 1159.361930190237 613.7558119905505 1157.8328330646605 612.1314204792047 1156.3037359390842 610.5070289678591 1155.373373869349 608.4794165244232 1154.4430117996142 606.4518040809872 1154.2087939400135 604.2332622635265 1153.9745760804128 602.0147204460659 1154.4610251026743 599.8375311685068 1154.9474741249355 597.6603418909475 1156.1036586880182 595.7524574453724 1157.2598432511006 593.8445729997974 1158.9647105260465 592.4057493912907 1160.6695778009926 590.966925782784 1162.7446277340737 590.1478082229689 1164.8196776671548 589.3286906631538 1167.0476519826177 589.2150409767689 1169.2756262980806 589.1013912903841 1169.2735707758516 589.1011613840574 1169.2715152536227 589.1009314777307 1175.921165916603 589.0137650461445 1182.5708165795834 588.9265986145583 1190.1827590567614 586.3060864129388 1197.7947015339396 583.6855742113194 1205.4988935839672 576.8313439153053 1213.2030856339948 569.9771136192912 1217.56765593489 562.7120624187911 1221.9322262357848 555.447011218291 1222.9156426716454 546.7116368347978 1223.899059107506 537.9762624513046 1217.00754188766 537.8331808637589 1210.1160246678141 537.6900992762132 1200.3854850396265 538.6911906015471 1190.6549454114386 539.692281926881 1180.4196748805612 540.9349440808021 1170.184404349684 542.1776062347232 1162.6758765390286 540.3124233219847 1155.167348728373 538.4472404092463 1150.5960383147199 529.1909172080184 1146.0247279010669 519.9345940067903 1143.3142691130397 510.78023379553053 1140.6038103250128 501.6258735842708 1136.0549225090235 493.892223613099 1131.5060346930343 486.15857364192726 1127.4484818361102 481.05617356987466 1123.3909289791861 475.953773497822 1123.1022173350177 482.31868924779997 1122.8135056908493 488.68360499777793 1122.7277313101724 495.21256122214794 1122.6419569294956 501.74151744651795 1122.7015250016193 510.00128038311004 1122.7610930737428 518.2610433197021 1123.0400157775293 527.9298548507691 1123.3189384813159 537.598666381836 1123.6314423432577 547.0316635131836 1123.9439462051998 556.4646606445312 1123.7648098774916 557.9399336154527 1123.5856735497832 559.415206586374 1123.0586759784414 560.80473662291 1122.5316784070994 562.1942666594462 1121.6874487157313 563.4172942105865 1120.8432190243632 564.6403217617269 1119.730823882297 565.6257644087357 1118.618428740231 566.6112070557446 1117.3025206053894 567.3017908256768 1115.986612470548 567.992374595609 1114.5436719855556 568.3479627273093 1113.1007315005631 568.7035508590095 1111.6146224342042 568.7034765535561 1110.128513367845 568.7034022481027 1108.6856084488804 568.3476698241323 1107.2427035299158 567.9919374001616 1105.9268644600306 567.3012220428691 1104.6110253901456 566.6105066855765 1103.498728797906 565.6249528039809 1102.3864322056663 564.6393989223852 1101.5423248212742 563.4162869543909 1100.6982174368823 562.1931749863967 1100.1713588211787 560.8035922570513 1099.6445002054752 559.4140095277058 1099.4655114059594 557.938718650528 1099.2865226064437 556.4634277733503 1099.2865225756218 556.4640442089408 Z" fill="hsl(167, 52%, 78%)"></path><path d="M 794.3380970984573 639.1469116210938 Q 794.3380970984573 639.1469116210938 794.4661963284618 628.220429100203 794.5942955584662 617.2939465793122 792.9333800029932 608.9220600864212 791.2724644475202 600.5501735935301 782.3302743971977 591.7373376392419 773.3880843468753 582.9245016849537 763.8986953383097 578.7847237598216 754.4093063297441 574.6449458346897 743.6023474785839 573.8705030444163 732.7953886274237 573.0960602541429 721.3288121360297 576.5535646661675 709.8622356446357 580.0110690781921 699.9532098621339 586.0372590589654 690.044184079632 592.0634490397389 683.2329346090916 599.3024234090597 676.4216851385511 606.5413977783803 671.9838897274802 614.1994545467073 667.5460943164094 621.8575113150345 665.635615552502 628.4595166213128 663.7251367885947 635.0615219275912 664.056446547726 643.5710467961715 664.3877563068571 652.0805716647518 660.6561443791436 660.0501555551291 656.9245324514302 668.0197394455065 650.159661903846 664.0959761684676 643.3947913562619 660.1722128914288 636.5201882456904 659.6638409142632 629.6455851351191 659.1554689370977 624.8126466518897 668.4637524770466 619.9797081686604 677.7720360169955 620.4441479989707 687.0971387089664 620.9085878292811 696.4222414009375 624.2459053147124 701.9254067690395 627.5832228001439 707.4285721371415 633.5596870132516 714.322164388302 639.5361512263594 721.2157566394625 646.6439026815756 727.1359911250152 653.7516541367918 733.0562256105678 660.4162343262147 737.3197205423146 667.0808145156377 741.5832154740613 678.108033642245 744.9223243502661 689.1352527688523 748.2614332264708 696.1801445823728 747.4925224908202 703.2250363958933 746.7236117551695 706.7816466432309 745.9603852462524 710.3382568905686 745.1971587373354 712.2620289709944 745.1779767513877 714.1858010514202 745.1587947654401 716.0149884350333 745.7548991872001 717.8441758186462 746.35100360896 719.3872621035235 747.4999821481131 720.9303483884008 748.6489606872661 722.0257720331806 750.2305149874621 723.1211956779604 751.812069287658 723.6542655378704 753.6606101961764 724.1873353977804 755.5091511046949 724.1022389177714 757.4311359004466 724.0171424377623 759.3531206961984 723.3227892417544 761.1473170637134 722.6284360457464 762.9415134312285 721.397525096653 764.4200685372062 720.1666141475597 765.898623643184 718.52802214668 766.906732377728 716.8894301458002 767.9148411122719 715.0147181081725 768.3469542247603 713.1400060705448 768.7790673372489 711.2254568413846 768.5899424707376 709.3109076122245 768.4008176042263 707.5569750012169 767.6102561821631 705.8030423902092 766.8196947600998 704.3933636047198 765.5104687720626 702.9836848192303 764.2012427840255 702.065853600219 762.510428536564 701.1480223812077 760.8196142891023 700.8181358995889 758.9242404802573 700.48824941797 757.0288666714122 700.7808468754506 755.1273794392997 701.0734443329313 753.2258922071873 701.9578906984751 751.5173777669536 702.8423370640189 749.8088633267198 704.2260305696822 748.4722035912612 705.6097240753454 747.1355438558027 707.3477916458255 746.3106874522657 709.0858592163057 745.4858310487288 710.9963247181682 745.2591406603046 712.9067902200308 745.0324502718805 714.7896274109168 745.4276604420777 716.6724646018027 745.822870612275 718.3305399308057 746.7986027319484 719.9886152598086 747.774334851622 721.2483278022926 749.2284295102738 722.5080403447764 750.6825241689255 723.2374978650114 752.4627372719509 723.9669553852464 754.2429503749763 724.0897834883058 756.162893140558 724.2126115913651 758.0828359061398 723.7159501424351 759.9414898199058 723.2192886935051 761.8001437336717 722.1551382773945 763.4029072402136 721.0909878612839 765.0056707467555 719.570765307468 766.1847340838499 718.050542753652 767.3637974209444 716.2334157648152 767.9957123459551 714.4162887759783 768.6276272709657 714.4180460611315 768.627321418572 714.4198033462847 768.6270155661783 710.5201279691499 769.1626948246198 706.6204525920152 769.6983740830615 695.262161840156 769.6721983413534 683.9038710882967 769.6460225996453 677.0116895182102 767.7550615615829 670.1195079481238 765.8641005235205 662.9224541914288 762.6723732048579 655.7254004347337 759.4806458861951 648.113041846329 754.6355000423432 640.5006832579243 749.7903541984914 631.771917029327 743.1565911732147 623.0431508007298 736.522828147938 614.8402929016478 728.0825767327626 606.6374350025658 719.6423253175873 601.470366790887 710.373278250423 596.3032985792082 701.1042311832589 595.0558228425036 692.3736642881229 593.8083471057992 683.6430973929869 595.0648510728169 676.1313964021151 596.3213550398345 668.6196954112435 599.1217957609399 661.9806675176126 601.9222364820454 655.3416396239816 606.514564050527 649.2662502438293 611.1068916190086 643.1908608636771 617.4933380376559 639.1832966914536 623.8797844563032 635.1757325192301 630.3544216388104 634.3769994973111 636.8290588213175 633.578266475392 647.3847185604329 637.6790385858567 657.9403782995483 641.7798106963215 664.5790526183016 648.331249067488 671.2177269370549 654.8826874386546 673.3178945110631 661.6583822267637 675.4180620850711 668.4340770148729 669.5436460751114 673.1026185986073 663.6692300651517 677.7711601823415 656.374873501016 670.9766131474205 649.0805169368803 664.1820661124995 647.1646669151921 653.6861342728567 645.2488168935041 643.190202433214 646.7920955182374 636.4413557231392 648.3353741429707 629.6925090130642 651.5131817548742 621.8083674820928 654.6909893667776 613.9242259511215 660.4499797698847 605.2534282011957 666.2089701729919 596.5826304512698 674.5120594805265 588.4838430979548 682.8151487880612 580.38505574464 694.2642990654144 573.4055496282651 705.7134493427676 566.4260435118904 719.6426796018136 562.3649824862317 733.5719098608596 558.3039214605731 747.0073141185012 559.3705860446388 760.4427183761427 560.4372506287045 772.4817900142065 565.9563656294072 784.5208616522702 571.4754806301097 796.048272393879 583.6137988429969 807.5756831354877 595.752117055884 809.6879594135107 606.4914631679735 811.8002356915338 617.2308092800629 811.9283349215382 628.1888604505783 812.0564341515427 639.1469116210938 811.9277103287905 640.2070136051495 811.7989865060382 641.2671155892052 811.4202964724079 642.2656043961389 811.0416064387778 643.2640932030725 810.4349596768168 644.1429366165115 809.8283129148557 645.0217800299505 809.0289677628723 645.7298996294132 808.2296226108888 646.4380192288761 807.2840370466733 646.9342590699712 806.3384514824578 647.4304989110661 805.3015829834305 647.6860175109132 804.2647144844033 647.9415361107604 803.1968258964448 647.9414827163309 802.1289373084865 647.9414293219014 801.0920943665035 647.6858070364822 800.0552514245205 647.4301847510629 799.1097154890169 646.9338503538929 798.1641795535135 646.4375159567228 797.3649052174866 645.7293164262855 796.5656308814597 645.0211168958482 795.9590720068732 644.1422128221275 795.3525131322865 643.2633087484066 794.9739229494302 642.2647820774621 794.5953327665738 641.2662554065175 794.4667149546635 640.20614055538 794.3380971427531 639.1460257042426 794.3380971206052 639.1464686626682 Z" fill="hsl(167, 52%, 78%)"></path><path d="M 497.11114898650044 552.5274047851562 Q 497.11114898650044 552.5274047851562 497.3512610753721 543.4717338562011 497.59137316424375 534.4160629272461 497.7928363583235 525.2851453996223 497.99429955240316 516.1542278719983 497.7448362279747 507.6074667230346 497.49537290354624 499.0607055740708 496.31740173231225 491.40088225767454 495.13943056107826 483.74105894127825 493.48807722634325 477.29197182084465 491.83672389160824 470.84288470041105 489.62964267536813 462.96762861915636 487.422561459128 455.0923725379016 491.14548671790135 445.4711631721133 494.8684119766747 435.8499538063249 501.0649656325854 434.0434585185586 507.26151928849623 432.2369632307923 519.1018261628235 432.1036588629901 530.9421330371507 431.97035449518785 541.6042001396756 435.0803997852677 552.2662672422006 438.19044507534744 557.6748544441527 447.70337683253103 563.0834416461049 457.2163085897146 562.8535751663045 465.1940516551342 562.6237086865041 473.1717947205539 561.4598457854395 474.1918099277616 560.2959828843748 475.2118251349692 561.825447273831 476.921618540669 563.3549116632871 478.63141194636876 564.2583519778259 480.7400727552365 565.1617922923647 482.8487335641043 565.3446180925689 485.1354844328192 565.527443892773 487.4222353015342 564.9705132690998 489.6476528104983 564.4135826454266 491.8730703194624 563.17520638119 493.80415266803385 561.9368301169534 495.7352350166053 560.1466665339186 497.16979737313255 558.3565029508839 498.6043597296598 556.2019826487519 499.39220303672664 554.0474623466199 500.18004634379355 551.7541641697621 500.2386831991797 549.4608659929042 500.29732005456594 547.2688988658095 499.6206111640339 545.0769317387148 498.94390227350186 543.2157951982132 497.602699236524 541.3546586577115 496.26149619954623 540.0192141908858 494.39622332813747 538.6837697240601 492.53095045672876 538.01383871911 490.33690231290984 537.3439077141599 488.14285416909087 537.4096321241483 485.849748172692 537.4753565341367 483.55664217629305 538.2698549959885 481.4045671304584 539.0643534578401 479.2524920846237 540.5044417728718 477.4667708147448 541.9445300879036 475.6810495448659 543.8794306293852 474.44864753928374 545.8143311708668 473.21624553370157 548.0414593413411 472.66619560772307 550.2685875118153 472.11614568174457 552.5547624039289 472.3060382078188 554.8409372960423 472.4959307338931 556.9467957950992 473.4058839144134 559.052654294156 474.3158370949336 560.7577124594122 475.85057859169507 562.4627706246686 477.3853200884565 563.5885084161305 479.3841620616159 564.7142462075923 481.38300403477524 565.1427985813276 483.6366672020996 565.5713509550629 485.890330369424 565.2578483644149 488.1628556023853 564.9443457737668 490.4353808353467 563.9216120227329 492.4888341421654 562.8988782716989 494.54228744898415 561.2739938539878 496.16167172637745 559.6491094362766 497.7810560037707 557.5922001793506 498.7968212904194 555.5352909224245 499.81258657706815 553.2617157684549 500.1183819793243 550.9881406144852 500.4241773815804 548.7359434822583 499.9879860401055 546.4837463500313 499.55179469863066 544.4887328738135 498.4192859620205 542.4937193975958 497.2867772254104 542.495375019015 497.2881123951819 542.4970306404341 497.28944756495343 538.9626377212699 492.89611172651473 535.4282448021056 488.5027758880761 535.5956987924105 478.7802164715625 535.7631527827156 469.0576570550489 532.6886366078835 463.03955932996803 529.6141204330514 457.02146160488724 519.743692053487 453.2015286930829 509.8732636739227 449.3815957812785 511.5325373729611 457.51336270185493 513.1918110719995 465.6451296224313 514.902848389921 473.0103707083276 516.6138857078427 480.37561179422397 518.0205463801756 489.23946341643494 519.4272070525085 498.1033150386459 519.9323961328652 507.12832803004017 520.4375852132218 516.1533410214345 520.6390484073015 525.2847019743404 520.8405116013813 534.4160629272461 521.0806236902529 543.4717338562011 521.3207357791246 552.5274047851562 521.1448529888908 553.9758833255032 520.9689701986571 555.4243618658503 520.451544143988 556.7886547653759 519.9341180893191 558.1529476649015 519.1052215968234 559.3537621561842 518.2763251043276 560.5545766474669 517.1841336770945 561.5221213358533 516.0919422498614 562.4896660242397 514.7999341049581 563.1677071669809 513.5079259600549 563.8457483097221 512.0911926715679 564.1948781237445 510.67445938308094 564.5440079377668 509.2153415563022 564.5439349818753 507.75622372952336 564.5438620259839 506.33952536110144 564.1945905403786 504.9228269926795 563.8453190547734 503.63088665835045 563.1671487146082 502.3389463240214 562.4889783744428 501.2468516567179 561.5213244717515 500.1547569894144 560.5536705690604 499.3259805825121 559.3527731941326 498.49720417560974 558.1518758192049 497.9799145528176 556.7875311838955 497.46262493002547 555.4231865485859 497.28688698852494 553.9746904272023 497.1111490470244 552.5261943058186 497.1111490167624 552.5267995454874 Z" fill="hsl(167, 52%, 78%)"></path><path d="M 846.1901044383985 131.23812060338412 Q 846.1901044383985 131.23812060338412 857.1381932529375 131.02867117459516 868.0862820674764 130.8192217458062 884.546361625898 131.01529811897382 901.0064411843198 131.21137449214143 920.7370461618111 131.0268577768481 940.4676511393025 130.84234106155472 960.104993231588 130.0901814752596 979.7423353238736 129.3380218889645 998.4107534785953 129.07026877751468 1017.0791716333172 128.80251566606486 1032.9341687327528 128.73054580304387 1048.7891658321882 128.65857594002287 1060.4313332991026 128.54122496427965 1072.0735007660169 128.42387398853646 1079.6622516600078 128.03396747795287 1087.2510025539987 127.64406096736927 1096.8700689922794 127.81566489563318 1106.4891354305603 127.98726882389707 1107.6814989872419 128.66419396227087 1108.8738625439235 129.3411191006447 1109.7876558424714 130.36334231589365 1110.701449141019 131.38556553114256 1111.240997781857 132.6460597827893 1111.7805464226951 133.90655403443606 1111.8893595207007 135.27334524159505 1111.9981726187063 136.64013644875405 1111.6648574137944 137.9701212112379 1111.3315422088826 139.30010597372177 1110.5909968909941 140.45403453581656 1109.8504515731056 141.60796309791132 1108.7802114325084 142.46501883455812 1107.7099712919112 143.32207457120495 1106.4220907538418 143.79252352053615 1105.1342102157723 144.26297246986735 1103.763530712534 144.29755850270146 1102.3928512092957 144.3321445355356 1101.0828832467018 143.92724648510512 1099.772915284108 143.52234843467463 1098.66081285364 142.72035923374227 1097.5487104231722 141.91837003280995 1096.7509109428668 140.80325816241796 1095.9531114625613 139.68814629202598 1095.553144748605 138.37666425936533 1095.1531780346486 137.0651822267047 1095.1929207075734 135.69464254679264 1095.2326633804983 134.32410286688054 1095.707954371958 133.03800140599114 1096.1832453634179 131.75189994510174 1097.0443215811424 130.68489186568797 1097.9053977988667 129.61788378627418 1099.0621043355577 128.8816851159134 1100.2188108722487 128.14548644555265 1101.550040248174 127.81717737936924 1102.8812696240993 127.48886831318585 1104.2476417721891 127.60282289707439 1105.614013920279 127.71677748096293 1106.872469315941 128.2610646399092 1108.130924711603 128.80535179885547 1109.1497027427117 129.72298452363992 1110.1684807738202 130.64061724842438 1110.8409151115868 131.8355191505306 1111.5133494493534 133.0304210526368 1111.7690360411086 134.37748558749075 1112.0247226328638 135.72455012234474 1111.836891024956 137.08273927755675 1111.6490594170484 138.44092843276877 1111.0373756284084 139.668039445261 1110.4256918397684 140.89515045775326 1109.4541993245357 141.86270448059196 1108.4827068093027 142.83025850343063 1107.2531210902712 143.4369523750151 1106.0235353712394 144.04364624659956 1104.6645943977705 144.2259589584233 1103.305653424302 144.40827167024702 1101.9596386750438 144.14711503325617 1100.6136239257858 143.88595839626532 1100.6148163275125 143.8863990596315 1100.6160087292394 143.88683972299765 1093.9642932140077 143.34584024942467 1087.3125776987758 142.8048407758517 1079.735806766978 142.47652868611885 1072.15903583518 142.14821659638602 1060.5471089785474 142.1757936697034 1048.9351821219147 142.20337074302083 1033.1577356039056 142.47240805426006 1017.3802890858963 142.7414453654993 998.9075571618876 143.2760620758383 980.4348252378787 143.8106787861773 960.6229409845298 144.94644819232647 940.811056731181 146.08221759847564 920.9886258276298 146.78864324620605 901.1661949240786 147.49506889393643 884.9315091626761 148.01186881027118 868.6968234012735 148.52866872660593 857.7603785244062 149.0738629287984 846.823933647539 149.61905713099088 845.7195830450041 149.52344201720445 844.6152324424693 149.42782690341798 843.5658572029876 149.070693720885 842.5164819635058 148.713560538352 841.5830718253005 148.1156658844211 840.6496616870953 147.5177712304902 839.8864664912551 146.71386477053983 839.123271295415 145.90995831058945 838.5746479825806 144.9467631258433 838.0260246697462 143.9835679410971 837.7238592526367 142.91706498094817 837.4216938355271 141.8505620207992 837.3835481823819 140.74273648740072 837.3454025292366 139.63491095400224 837.5734936672088 138.5501497194063 837.8015848051809 137.4653884848104 838.2826560666148 136.46673792293905 838.7637273280486 135.46808736106772 839.4698188286266 134.6135890894983 840.1759103292045 133.75909081792886 841.0659839977372 133.0984083163534 841.9560576662701 132.43772581477793 842.9783823793227 132.00925798123004 844.0007070923755 131.58079014768214 845.0958652895918 131.40943955277908 846.1910234868079 131.23808895787604 846.1905639626032 131.23810478063007 Z" fill="hsl(167, 52%, 78%)"></path><path d="M 986.9245996620396 69.5580825805664 Q 986.9245996620396 69.5580825805664 987.040793615528 77.86041111831616 987.1569875690165 86.16273965606592 986.3967087352161 95.74865843667303 985.6364299014157 105.33457721728011 982.2681074422055 117.16588903804217 978.8997849829955 128.99720085880423 972.5502706605535 142.50905326927972 966.2007563381113 156.0209056797552 957.6680618482978 170.46164445941085 949.1353673584845 184.9023832390665 940.1124237174631 198.21587686874068 931.0894800764419 211.52937049841483 922.1842254184046 222.58740875651534 913.2789707603674 233.64544701461583 906.6878378929462 242.13279602636166 900.0967050255248 250.6201450381075 895.0485711666538 256.5242080272787 890.0004373077829 262.4282710164499 883.7324105130001 269.63662545471124 877.4643837182172 276.84497989297256 876.2806488983806 277.6310454887738 875.096914078544 278.4171110845751 873.7241482792069 278.7840460989389 872.3513824798698 279.1509811133027 870.9333146425977 279.06036735336374 869.5152468053255 278.96975359342485 868.2003490070144 278.4310783437685 866.8854512087032 277.89240309411207 865.8113935959354 276.9620657955737 864.7373359831678 276.03172849703543 864.016572671524 274.8071357103573 863.2958093598802 273.5825429236791 863.0038044583524 272.1919098368875 862.7117995568246 270.80127675009584 862.8791260556847 269.39020301446925 863.0464525545447 267.97912927884266 863.655591325192 266.6953546869886 864.2647300958392 265.41158009513447 865.2519041481901 264.38951618570354 866.2390782005408 263.36745227627256 867.5009301507253 262.71410941038084 868.7627821009097 262.0607665444892 870.167195716647 261.84454989266135 871.5716093323842 261.62833324083357 872.9715421373775 261.87188074359165 874.3714749423707 262.1154282463498 875.6203536023907 262.7932404158647 876.8692322624107 263.47105258537965 877.8362988520814 264.5121623085782 878.8033654417521 265.5532720317767 879.3873678338543 266.84867484581366 879.9713702259565 268.1440776598506 880.1111632158754 269.5581445481432 880.2509562057942 270.97221143643577 879.9319034305834 272.35688922250233 879.6128506553725 273.7415670085689 878.8683570248186 274.9518795626888 878.1238633942645 276.16219211680874 877.0318775880135 277.07141939507426 875.9398917817623 277.9806466733397 874.6147450019849 278.49359233970364 873.2895982222076 279.00653800606756 871.8700336865513 279.06949651385713 870.4504691508952 279.1324550216467 869.0851156409719 278.73883459847696 867.7197621310488 278.34521417530715 866.551572519766 277.5362269833896 865.3833829084831 276.727239791472 864.534666956514 275.58758700335227 863.6859510045448 274.4479342152326 863.2455694960997 273.096937778666 862.8051879876548 271.74594134209946 862.8192489829175 270.32505094062293 862.8333099781804 268.9041605391464 863.3003412872351 267.5621437728731 863.76737259629 266.2201270065999 864.6384759177945 265.0974933852168 865.509579239299 263.9748597638337 865.508613980282 263.97575637417634 865.5076487212651 263.976652984519 871.9900852907526 257.8137436172632 878.4725218602402 251.65083425000742 883.6307768549218 246.63851252340433 888.7890318496032 241.62619079680124 895.559263006855 233.30606843285116 902.3294941641068 224.9859460689011 910.6576865103555 214.25321036253092 918.985878856604 203.5204746561608 927.4291498465311 190.42028411276988 935.8724208364581 177.32009356937894 943.577976793775 163.34781082279687 951.2835327510917 149.3755280762148 956.5073712442777 136.87252277961898 961.7312097374636 124.36951748302313 964.2868033701725 114.05309856609905 966.8423970028813 103.73667964917497 967.5914229786512 94.94712472067562 968.340448954421 86.15756979217628 968.4566429079096 77.85782618637134 968.572836861398 69.5580825805664 968.7061625259264 68.4600822378936 968.8394881904547 67.36208189522081 969.2317162901533 66.32789738405347 969.6239443898518 65.29371287288615 970.2522786091372 64.38345104560428 970.8806128284226 63.47318921832241 971.7085343529479 62.7397545350961 972.5364558774731 62.00631985186979 973.5158458693331 61.49233957094843 974.4952358611931 60.978359290027065 975.5691721280446 60.713705969487066 976.6431083948959 60.44905264894706 977.7491737104506 60.449107952212884 978.8552390260053 60.44916325547871 979.929148822155 60.71392396832195 981.0030586183046 60.97868468116519 981.9823972072397 61.49276289851568 982.9617357961747 62.00684111586616 983.7895839730921 62.74035858757761 984.6174321500096 63.47387605928906 985.2456753399707 64.38420071544144 985.8739185299319 65.29452537159382 986.2660432092183 66.32874910040013 986.6581678885047 67.36297282920646 986.7913837523324 68.46098649895568 986.9245996161601 69.5590001687049 986.9245996390998 69.55854137463565 Z" fill="hsl(167, 52%, 78%)"></path><path d="M 968.6366291504265 150.91958158096307 Q 968.6366291504265 150.91958158096307 969.385037403177 157.69663317881734 970.1334456559273 164.4736847766716 974.4896353211254 175.83285783836627 978.8458249863236 187.19203090006093 982.477659608656 194.32144119116657 986.1094942309884 201.45085148227224 990.3829775860482 207.90391156922658 994.6564609411081 214.35697165618092 999.5125744535316 219.7358781817249 1004.368687965955 225.1147847072689 1009.516284680728 229.3861455231397 1014.6638813955008 233.65750633901052 1019.797029703708 237.27447799190537 1024.9301780119151 240.8914496448002 1031.9317262258471 244.47073275861936 1038.933274439779 248.05001587243854 1042.954456754513 250.15389753846972 1046.975639069247 252.2577792045009 1048.4360043256129 253.6168955268997 1049.896369581979 254.9760118492985 1050.846303279236 256.73028943013526 1051.7962369764934 258.484567010972 1052.136280805781 260.4503325244488 1052.476324635069 262.4160980379256 1052.170875917698 264.38753531586974 1051.8654272003268 266.35897259381386 1050.9464664976363 268.12967163281564 1050.027505794946 269.9003706718175 1048.5912485350896 271.2849388150744 1047.1549912752334 272.6695069583312 1045.3518139724536 273.52297955575364 1043.5486366696737 274.37645215317605 1041.5673324635638 274.60947039851897 1039.586028257454 274.8424886438619 1037.6340402214073 274.43065546532716 1035.6820521853606 274.0188222867924 1033.963753982026 273.00525672688593 1032.2454557786914 271.9916911669794 1030.9407536835447 270.4825138073787 1029.636051588398 268.9733364477781 1028.881548255209 267.12655855641754 1028.1270449220199 265.279780665057 1028.001737048943 263.2887603746641 1027.876429175866 261.29774008427114 1028.3934365302903 259.37093774482827 1028.9104438847148 257.4441354053854 1030.0156356601556 255.78328773045865 1031.1208274355963 254.12244005553194 1032.6984897614225 252.90143823510738 1034.2761520872486 251.68043641468284 1036.1611033014838 251.0271196616721 1038.046054515719 250.37380290866136 1040.0409397286542 250.35657365956354 1042.0358249415892 250.33934441046569 1043.9317791448311 250.96000657220938 1045.8277333480733 251.58066873395308 1047.4262496360595 252.77423881436482 1049.0247659240458 253.96780889477657 1050.1584792194567 255.60931979136538 1051.2921925148678 257.2508306879542 1051.8424027364026 259.1684157765304 1052.3926129579377 261.08600086510666 1052.3017129501604 263.0788884807031 1052.2108129423832 265.07177609629946 1051.4883199601034 266.93131037949183 1050.7658269778235 268.79084466268426 1049.4873862270056 270.322331883153 1048.2089454761874 271.8538191036218 1046.5084100409174 272.8969121451105 1044.8078746056474 273.9400051865992 1042.8632909948958 274.38549193231415 1040.9187073841442 274.8309786780291 1038.9336740152771 274.63221654809684 1036.9486406464098 274.4334544181646 1035.1309910371453 273.6112538600572 1033.313341427881 272.78905330194976 1033.3148812734498 272.79007797428056 1033.3164211190185 272.79110264661136 1030.443794533483 270.9035343038089 1027.5711679479475 269.0159659610064 1019.5938761349769 264.1799500085642 1011.6165843220062 259.34393405612207 1005.8792232807336 255.1090337442341 1000.141862239461 250.87413343234613 993.9167639028385 245.54859982166 987.6916655662159 240.22306621097383 981.7691233281133 233.67479582292793 975.8465810900108 227.126525434882 970.7390656490261 219.72061384900533 965.6315502080414 212.31470226312865 961.3955030699196 204.59098494944578 957.1594559317978 196.8672676357629 953.7863204906473 189.31156732032028 950.413185049497 181.75586700487767 948.3991745063552 174.4649386940591 946.3851639632132 167.17401038324053 945.6242674063933 160.36755558766217 944.8633708495735 153.5611007920838 944.8780395473386 152.11953747457798 944.8927082451037 150.67797415707216 945.2519501198223 149.28181326214593 945.6111919945408 147.88565236721973 946.2941278915754 146.6160388316846 946.9770637886099 145.34642529614942 947.9440014415372 144.27714911834315 948.9109390944645 143.20787294053687 950.1056800414651 142.40108050215332 951.3004209884656 141.59428806376977 952.653526829565 141.09687017923477 954.0066326706643 140.5994522946998 955.4394608308024 140.4403189148336 956.8722889909405 140.28118553496742 958.3015634301291 140.4695854992847 959.7308378693177 140.657985463602 961.0734890899969 141.1829689573247 962.416140310676 141.70795245104742 963.5941333608157 142.53900740885416 964.7721264109554 143.37006236666087 965.7169962791336 144.45888783535693 966.6618661473119 145.547713304053 967.3186969523958 146.83102669623952 967.9755277574798 148.11434008842608 968.3061444622167 149.51755516945298 968.6367611669538 150.9207702504799 968.6366951586901 150.92017591572147 Z" fill="hsl(167, 52%, 78%)"></path><path d="M 1159.2326610259206 164.62154518488822 Q 1159.2326610259206 164.62154518488822 1170.7254828802052 151.87149810746212 1182.2183047344897 139.12145103003598 1190.6562174369194 129.69813287673747 1199.094130139349 120.27481472343898 1204.2416487265043 113.50807070763031 1209.3891673136595 106.74132669182166 1214.0887447172208 100.5460393004336 1218.7883221207821 94.35075190904556 1227.287519557633 94.70672495845322 1235.786716994484 95.06269800786089 1237.060634342808 103.06052314586549 1238.334551691132 111.05834828387009 1235.0013316323148 122.51933177870073 1231.6681115734975 133.98031527353137 1228.3442120954473 142.3117640868292 1225.0203126173974 150.64321290012703 1220.6621827879148 160.79118507885244 1216.304052958432 170.93915725757782 1210.241316776892 183.23842561826805 1204.178580595352 195.5376939789583 1197.27182318596 208.67086899640952 1190.3650657765681 221.8040440138608 1183.5545194385802 234.48576511310472 1176.7439731005923 247.16748621234862 1170.7509365203794 258.18166163121043 1164.7578999401665 269.1958370500722 1161.0479208718268 277.930311742854 1157.3379418034872 286.66478643563573 1154.7829408785503 292.88637346370524 1152.2279399536135 299.1079604917747 1145.5182461870127 300.4860766071623 1138.808552420412 301.8641927225499 1145.0585178261604 299.41288002036595 1151.3084832319087 296.961567318182 1160.6270636092413 296.79879031755 1169.945643986574 296.6360133169181 1177.6180953971389 301.4002612393606 1185.2905468077038 306.1645091618031 1189.7724569720365 315.9467845193267 1194.2543671363692 325.7290598768502 1194.1708766869792 333.48217598475736 1194.0873862375893 341.2352920926645 1190.2597562589517 352.03196443819525 1186.4321262803144 362.8286367837259 1178.3238871928033 375.7065292722252 1170.2156481052925 388.5844217607246 1160.8873551817865 401.0307127332485 1151.5590622582804 413.47700370577235 1143.7173448994988 423.1946462673801 1135.8756275407172 432.91228882898787 1129.6016601721099 440.3469581788834 1123.3276928035023 447.781627528779 1119.3184898281902 452.6063582738791 1115.3092868528784 457.43108901897915 1110.3836239378793 462.51110614671256 1105.4579610228805 467.591123274446 1104.0777154907337 468.3581793835292 1102.6974699585871 469.1252354926125 1101.144550753218 469.4114080718165 1099.5916315478487 469.6975806510205 1098.02862971999 469.4729073557603 1096.4656278921314 469.2482340605002 1095.0561901457522 468.5362382440976 1093.6467523993733 467.824242427695 1092.5384472385754 466.69947024007604 1091.4301420777774 465.57469805245705 1090.73900934546 464.1549134385764 1090.0478766131428 462.73512882469566 1089.8462780888212 461.1689836084133 1089.6446795644995 459.602838392131 1089.9537226668867 458.05430839101393 1090.262765769274 456.5057783898969 1091.050093603971 455.13699510383435 1091.837421438668 453.76821181777177 1093.0206005735472 452.7224872181381 1094.2037797084265 451.6767626185044 1095.6589309757373 451.06358434692584 1097.1140822430484 450.45040607534725 1098.6888509209807 450.3339740587213 1100.2636195989132 450.21754204209543 1101.7931269911892 450.61004674329797 1103.3226343834651 451.0025514445005 1104.6467406623624 451.8628975177045 1105.9708469412597 452.7232435909084 1106.9509178298476 453.9613525751399 1107.9309887184359 455.1994615593715 1108.464410535966 456.6857031171526 1108.997832353496 458.17194467493374 1109.0287556948629 459.7507089228351 1109.05967903623 461.3294731707364 1108.5848662194298 462.8354630752493 1108.1100534026295 464.3414529797623 1107.1792174549196 465.6169910003417 1106.2483815072096 466.8925290209211 1104.9589811980318 467.8040659901029 1103.6695808888542 468.7156029592847 1102.1566167709482 469.1677007157732 1100.6436526530422 469.61979847226166 1099.0655324689365 469.5651222616103 1097.487412284831 469.51044605095893 1096.0093656343847 468.954720486856 1094.5313189839387 468.39899492275305 1093.30809774162 467.4004046184574 1092.0848764993013 466.4018143141618 1091.2445522520802 465.06491193813554 1090.4042280048589 463.7280095621092 1090.0347829232433 462.1927691460302 1089.6653378416274 460.6575287299511 1089.8054529231863 459.08469035064684 1089.9455680047452 457.5118519713426 1090.5805731634528 456.0660922223153 1091.2155783221604 454.620332473288 1092.278988350275 453.45302278190434 1093.3423983783896 452.2857130905207 1093.341250472617 452.2866217577258 1093.3401025668447 452.287530424931 1094.9196306834265 451.19688292494357 1096.4991588000084 450.10623542495614 1103.4016344260253 443.33570343856286 1110.3041100520425 436.56517145216964 1116.3932148586932 429.64465739786317 1122.4823196653442 422.7241433435567 1129.5252924661777 412.8698577838343 1136.5682652670112 403.01557222411185 1144.5065758555588 390.71772862634145 1152.4448864441065 378.419885028571 1158.329571865656 366.81310799735206 1164.214257287205 355.20633096613307 1166.6767776929378 347.45571536774946 1169.1392980986702 339.7050997693658 1169.1647171305685 333.08217770445185 1169.1901361624668 326.45925563953796 1163.5833692404804 322.28703627530444 1157.9766023184939 318.114816911071 1149.6934142005623 318.4110157343032 1141.4102260826307 318.7072145575354 1136.4024479414793 311.2737803359461 1131.3946698003276 303.84034611435686 1134.2396143110625 297.9337558810254 1137.0845588217974 292.02716564769395 1140.1684084586275 286.1898265595171 1143.2522580954576 280.35248747134017 1147.483287127415 271.36676951008627 1151.7143161593724 262.3810515488324 1157.3035588064213 251.23250559767467 1162.8928014534702 240.08395964651694 1169.1297853974584 227.2524376353519 1175.3667693414466 214.42091562418682 1181.4037211663 201.25975396870888 1187.4406729911536 188.0985923132309 1192.3019562394559 175.81692094085705 1197.1632394877581 163.53524956848318 1200.752487923805 153.1337835813477 1204.3417363598514 142.73231759421225 1207.2882291586902 134.6733593519229 1210.2347219575288 126.61440110963356 1215.2599192667844 116.4930592122492 1220.28511657604 106.37171731486481 1227.0406781125948 106.96605793033011 1233.7962396491494 107.56039854579541 1228.8424695078177 112.81628199427242 1223.888699366486 118.07216544274942 1218.423613577802 124.8865782012232 1212.9585277891179 131.70099095969698 1205.303787674775 141.8039732271596 1197.6490475604323 151.9069554946222 1187.2572655328809 165.5692951206873 1176.8654835053294 179.2316347467524 1175.8632478443856 180.18047794041092 1174.8610121834417 181.12932113406947 1173.6608213884574 181.81073274378446 1172.4606305934728 182.4921443534994 1171.1322398098432 182.8665207044982 1169.8038490262134 183.240897055497 1168.424464388697 183.28647937666955 1167.0450797511808 183.33206169784214 1165.6948711597202 183.04620074254024 1164.3446625682598 182.76033978723837 1163.1021042096304 182.15964980761532 1161.8595458510008 181.55895982799225 1160.796855275387 180.67835295388699 1159.7341646997734 179.79774607978172 1158.9131055333605 178.68840322409238 1158.0920463669474 177.57906036840308 1157.5603386070645 176.30545659002462 1157.0286308471816 175.03185281164613 1156.8171773738152 173.66801002201788 1156.6057239004488 172.30416723238966 1156.726814399406 170.9293520385247 1156.8479048983636 169.55453684465976 1157.294501584156 168.24865357022097 1157.7410982699482 166.94277029578217 1158.487244922214 165.78171693803654 1159.2333915744796 164.62066358029094 1159.2330263002 164.62110438258958 Z" fill="hsl(167, 52%, 78%)"></path><path d="M 1224.4461867154985 272.48095525398605 Q 1224.4461867154985 272.48095525398605 1224.810481962897 264.50078519745716 1225.1747772102958 256.5206151409282 1229.3396843538933 244.7056512055829 1233.5045914974908 232.89068727023763 1242.1568811420761 217.02699714457896 1250.8091707866613 201.1633070189203 1259.5379292235696 187.36483405439253 1268.2666876604778 173.56636108986473 1274.1128367620381 164.29769972189692 1279.9589858635986 155.0290383539291 1284.1550843436241 148.24710530019703 1288.3511828236497 141.46517224646496 1298.201464255484 135.0913484724218 1308.0517456873188 128.71752469837864 1311.7809044615906 136.54170804509485 1315.5100632358624 144.36589139181106 1315.6851868361812 152.7407798281272 1315.8603104365 161.11566826444334 1314.223810591671 175.91947925331633 1312.5873107468421 190.7232902421893 1308.2649110762482 209.7928896333017 1303.9425114056542 228.86248902441412 1296.9879611930055 248.1172932126505 1290.033410980357 267.3720974008869 1282.4585309358235 285.3074598053307 1274.88365089129 303.2428222097746 1267.0127242491303 318.89993656660823 1259.1417976069706 334.55705092344186 1252.758763054974 346.8000365464266 1246.3757285029774 359.04302216941136 1242.461282817649 367.68698794339025 1238.5468371323204 376.33095371736914 1236.4232790474061 382.2101159786532 1234.2997209624918 388.08927823993736 1246.303800353472 388.02496313356187 1258.307879744452 387.9606480271863 1266.4717787844977 387.51917930422906 1274.6356778245433 387.0777105812718 1281.5701445736477 386.0693729888083 1288.504611322752 385.06103539634483 1302.163518904184 388.0073621254803 1315.8224264856162 390.95368885461585 1309.5907880089273 400.3488877453791 1303.3591495322385 409.74408663614236 1293.7609801909707 416.85701446879307 1284.1628108497027 423.9699423014437 1272.4314269955435 433.93091281307215 1260.7000431413844 443.89188332470064 1250.820228907486 453.55505960444646 1240.9404146735874 463.2182358841923 1233.8785308004153 471.42778572759505 1226.8166469272435 479.6373355709978 1222.7407544675098 485.5200681068826 1218.664862007776 491.4028006427674 1227.183349181349 490.46815448408654 1235.701836354922 489.5335083254057 1244.724615968606 488.7086772933636 1253.74739558229 487.8838462613216 1262.6974925773375 486.10358635524517 1271.6475895723847 484.3233264491688 1279.1943875248235 482.32563083835737 1286.7411854772624 480.32793522754594 1295.7633017814603 478.1417204807225 1304.7854180856582 475.95550573389903 1306.7552189349385 486.26275603355873 1308.7250197842188 496.5700063332185 1306.9807180145945 496.2582548624723 1305.23641624497 495.9465033917262 1303.682974681033 495.09409682766204 1302.129533117096 494.24169026359783 1300.929597500659 492.93787579848663 1299.7296618842222 491.63406133337537 1299.0088657910787 490.01534868588783 1298.2880696979353 488.39663603840023 1298.1218806693091 486.632504850027 1297.9556916406827 484.8683736616537 1298.3615097117404 483.1435289335028 1298.7673277827982 481.41868420535184 1299.7026636943747 479.91371763577547 1300.637999605951 478.4087510661991 1302.0049234411995 477.2812330523045 1303.371847276448 476.15371503841 1305.027241748985 475.5216970138878 1306.6826362215222 474.8896789893656 1308.4531810930914 474.8193334082199 1310.2237259646606 474.74898782707413 1311.9240447198304 475.2476798902202 1313.6243634750003 475.7463719533663 1315.0764322912637 476.7618884701509 1316.5285011075273 477.77740498693544 1317.5802879965127 479.2034211099808 1318.632074885498 480.62943723302624 1319.173457482284 482.3166486978179 1319.7148400790697 484.0038601626096 1319.6891354828613 485.7756154834033 1319.6634308866528 487.54737080419704 1319.0733303754587 489.2181667312077 1318.4832298642643 490.88896265821836 1317.3905171173778 492.2838664168406 1316.2978043704911 493.6787701754629 1314.8168867009595 494.6517349739502 1313.3359690314276 495.62469977243757 1311.6218989101749 496.0738559395505 1309.907828788922 496.52301210666354 1308.140069810114 496.4013328731397 1306.372310831306 496.2796536396159 1304.7359478266671 495.59987885332544 1303.0995848220282 494.920104067035 1301.765945430102 493.7534063275457 1300.4323060381757 492.58670858805635 1299.5410226553433 491.0552414566709 1298.649739272511 489.52377432528544 1298.294129504231 487.787882814928 1297.938519735951 486.0519913045706 1298.1558160188342 484.29342371460655 1298.3731123017176 482.53485612464243 1299.1405636575855 480.93773494595763 1299.9080150134535 479.3406137672728 1301.1452690827591 478.0721580088747 1302.382523152065 476.8037022504765 1303.960039107149 475.99671956510906 1305.5375550622327 475.18973687974164 1307.2901665661739 474.9287185675857 1309.0427780701148 474.66770025542974 1309.0411353971467 474.6676764235581 1309.0394927241784 474.6676525916865 1308.6137815292814 485.705865117803 1308.1880703343843 496.74407764391947 1299.8227133476069 497.9855810096606 1291.4573563608294 499.2270843754018 1283.4400834082458 501.11358020498056 1275.4228104556623 503.00007603455936 1265.5077610082858 505.03221453142316 1255.5927115609095 507.06435302828703 1245.0855538881917 508.1073841765317 1234.578396215474 509.1504153247764 1225.0950888839293 508.1797117223317 1215.6117815523844 507.20900811988696 1210.4437632847819 503.5221382955446 1205.2757450171794 499.83526847120226 1204.8517910267656 491.0963216436726 1204.427837036352 482.35737481614285 1209.4837517310102 475.77489458801847 1214.5396664256684 469.19241435989403 1221.86194190704 460.5014143949432 1229.1842173884115 451.81041442999236 1238.944427405553 441.2394407413236 1248.7046374226943 430.66846705265493 1260.1020028977282 419.6540095164743 1271.4993683727623 408.6395519802937 1284.3675194667173 399.3903901755689 1297.2356705606724 390.14122837084403 1294.128236374919 397.6255028494014 1291.0208021891656 405.10977732795874 1283.288787694953 405.94198126188536 1275.5567732007405 406.774185195812 1266.9675014729637 407.112138271507 1258.378229745187 407.450091347202 1249.5420279062748 407.3426562004987 1240.7058260673628 407.2352210537955 1229.6646508273957 401.09790880279115 1218.6234755874289 394.9605965517868 1219.0686001993024 388.4109309205258 1219.513724811176 381.8612652892648 1222.4448477597352 375.9025516802528 1225.3759707082945 369.9438380712408 1229.80375188022 361.3877294169494 1234.2315330521456 352.831620762658 1240.3746567074747 340.5844284598644 1246.517780362804 328.3372361570708 1253.9152757204183 313.0047390370039 1261.3127710780327 297.672241916937 1268.356087558703 279.9789591672079 1275.3994040393732 262.2856764174787 1281.5331080588212 243.87456052500934 1287.6668120782695 225.46344463253996 1291.057232280532 207.40039081072103 1294.4476524827944 189.3373369889021 1294.9783373801645 175.36574798342377 1295.5090222775345 161.39415897794544 1299.0741799319467 156.15788199572194 1302.639337586359 150.9216050134984 1298.1490271364821 157.26598250740702 1293.6587166866052 163.61036000131563 1287.944437550068 172.79777263848118 1282.230158413531 181.98518527564673 1274.4116603802836 195.6321627146841 1266.5931623470362 209.27914015372147 1259.3938033233321 224.256156802536 1252.1944442996282 239.2331734513505 1249.2468727292364 248.49151665826292 1246.2993011588446 257.7498598651753 1245.9089790966732 265.61711832121966 1245.5186570345015 273.48437677726395 1245.3055299181897 274.73786931853795 1245.0924028018778 275.991361859812 1244.585479402323 277.1574216291725 1244.0785560027684 278.323481398533 1243.307298731771 279.33433694739756 1242.5360414607733 280.3451924962622 1241.5452758271604 281.1420928526361 1240.5545101935475 281.93899320900994 1239.401819542496 282.4756224867384 1238.2491288914443 283.01225176446695 1237.0015076577522 283.2574210447151 1235.75388642406 283.5025903249632 1234.4838464124487 283.44205035764367 1233.213806400837 283.38151039032414 1231.995162396454 283.01877976118203 1230.7765183920706 282.65604913204 1229.6800980417079 282.0122097622839 1228.5836776913454 281.3683703925278 1227.6732049972816 280.4808422565786 1226.762732303218 279.5933141206295 1226.0911239812103 278.5136803954489 1225.419515659203 277.4340466702683 1225.025805616482 276.2250557186901 1224.6320955737615 275.01606476711197 1224.5391662565085 273.7479832000462 1224.4462369392556 272.47990163298044 1224.446211827377 272.4804284434832 Z" fill="hsl(167, 52%, 78%)"></path><path d="M 297.54909092508404 637.5971739806668 Q 297.54909092508404 637.5971739806668 295.5663534078061 620.2039914477781 293.5836158905281 602.8108089148894 288.323626237411 572.1833905942781 283.06363658429393 541.5559722736668 276.3437054798153 500.87598979521846 269.6237743753367 460.1960073167701 263.03216936909655 416.06803020838936 256.4405643628563 371.9400531000086 251.39946685284423 331.2362032952712 246.35836934283213 290.5323534905338 244.22791064597135 261.40650473780875 242.0974519491106 232.28065598508365 241.21028512451556 211.57355756152398 240.3231182999205 190.8664591379643 239.95880031286617 175.6310500725795 239.5944823258118 160.39564100719474 239.87194154008336 150.9615995927353 240.1494007543549 141.52755817827583 241.8033334629223 135.39799593995104 243.45726617148972 129.26843370162626 250.62989156587076 122.95592139308964 257.8025169602518 116.64340908455301 259.20785293274025 116.36605382569792 260.61318890522864 116.08869856684282 262.0335180316091 116.27460259568512 263.45384715798957 116.46050662452743 264.7404606037996 117.09020574017345 266.0270740496096 117.71990485581945 267.0452630474399 118.72746939463661 268.0634520452702 119.73503393345376 268.70661193827215 121.0149716222567 269.3497718312741 122.29490931105964 269.55056360887266 123.71321033595996 269.75135538647123 125.13151136086029 269.488756096548 126.53967923015583 269.2261568066248 127.94784709945135 268.52766066415415 129.19844626550662 267.8291645216835 130.4490454315619 266.76790425716723 131.41113783156482 265.706643992651 132.37323023156773 264.3937338359294 132.94608453727028 263.0808236792079 133.5189388429728 261.65372567026446 133.64257705734903 260.226627661321 133.76621527172526 258.8347593384093 133.4276924410927 257.4428910154976 133.0891696104601 256.2319813594441 132.32392916454728 255.02107170339056 131.55868871863447 254.1179032748331 130.44685153413238 253.21473484627566 129.33501434963028 252.71386961809756 127.99299007325277 252.21300438991946 126.65096579687524 252.16688308372653 125.21926472461905 252.1207617775336 123.78756365236285 252.53421330625912 122.41608526442556 252.9476648349846 121.04460687648827 253.77740071443034 119.87694532212208 254.60713659387608 118.70928376775589 255.76628325843512 117.86769351993563 256.92542992299417 117.02610327211536 258.29262441090214 116.59869905194608 259.6598188988101 116.1712948317768 261.0919155862788 116.20282597393397 262.5240122737475 116.23435711609113 263.8710702595621 116.72152230166748 265.21812824537665 117.20868748724382 266.3391102028336 118.1004803927104 267.4600921602905 118.99227329817697 268.2376309825336 120.19532297092096 269.01516980477663 121.39837264366493 269.3678569718667 122.78671946537574 269.72054413895665 124.17506628708657 269.6114532113989 125.60334997904312 269.50236228384114 127.03163367099968 268.94291511054814 128.35031255362387 268.38346793725515 129.66899143624806 267.4322387849504 130.7399994824317 266.4810096326457 131.81100752861533 265.23759244467556 132.52220991320434 263.9941752567055 133.23341229779334 263.99541950695584 133.2329479234176 263.99666375720614 133.23248354904192 259.09938686142044 137.90595920422024 254.20210996563472 142.57943485939856 253.30351414708215 151.32440399391965 252.4049183285296 160.0693731284407 252.8246555304989 175.1787439536949 253.2443927324682 190.28811477894905 254.20206164675244 210.79491836570483 255.15973056103664 231.3017219524606 257.37006183800935 260.0860611215256 259.5803931149821 288.87040029059057 264.7529190728135 329.381510943776 269.92544503064494 369.8926215969614 276.7121647382071 413.8725662619905 283.4988844457692 457.8525109270196 290.50112628059117 498.4160896468058 297.5033681154131 538.979668366592 303.2233831925206 569.893110450949 308.9433982696281 600.806552535306 311.48850499063144 618.1267840038821 314.0336117116347 635.4470154724582 314.04249723899716 636.4489181770712 314.05138276635967 637.4508208816841 313.8202315857953 638.4257347824112 313.5890804052309 639.4006486831383 313.1313270342147 640.2919117382633 312.67357366319845 641.183174793388 312.0158227491613 641.9389867522709 311.3580718351241 642.6947987111539 310.5385518920941 643.2712317472331 309.7190319490642 643.8476647833121 308.7853735146353 644.2112165814469 307.8517150802064 644.5747683795817 306.85818242645536 644.704309292183 305.8646497727043 644.8338502047843 304.86898706414803 644.7218513079256 303.87332435559176 644.6098524110668 302.9333995556326 644.2628230858954 301.9934747556734 643.915793760724 301.16391633784707 643.3539033679242 300.33435792002075 642.7920129751244 299.66337985854807 642.0479186107259 298.99240179707533 641.3038242463275 298.51900136841476 640.4207727097504 298.0456009397542 639.5377211731733 297.79729219906216 638.5670354612133 297.5489834583701 637.5963497492534 297.54903719172705 637.5967618649601 Z" fill="hsl(167, 52%, 78%)"></path></svg>
